<?xml version="1.0" encoding="UTF-8"?>
<svg id="Layer_2" data-name="Layer 2" xmlns="http://www.w3.org/2000/svg" viewBox="0 0 275.32 122.31">
  <defs>
    <style>
      .cls-1 {
        fill: #fff;
        stroke-width: 0px;
      }
    </style>
  </defs>
  <g id="Layer_1-2" data-name="Layer 1">
    <g>
      <path class="cls-1" d="M0,32.91h27.85v11.99h.34c2.59-4.39,6.08-7.91,10.47-10.55,4.39-2.65,9.28-3.97,14.69-3.97s10.55,1.04,15.11,3.12c4.56,2.08,8.02,5.77,10.38,11.06,3.49-4.72,7.43-8.27,11.82-10.63,4.39-2.36,9.56-3.54,15.53-3.54,6.98,0,12.52,1.18,16.63,3.54,4.11,2.36,7.2,5.4,9.28,9.12,2.08,3.71,3.43,7.79,4.05,12.24.62,4.45.93,8.75.93,12.92v52.33h-28.7v-51.48c0-4.73-1.07-8.41-3.21-11.06-2.14-2.65-5.07-3.97-8.78-3.97-3.04,0-5.46.57-7.26,1.69-1.8,1.13-3.18,2.73-4.14,4.81-.96,2.08-1.55,4.59-1.77,7.51s-.34,6.13-.34,9.62v42.88h-28.7v-49.8c0-5.18-.82-9.26-2.45-12.24-1.63-2.98-4.42-4.47-8.36-4.47-5.18,0-8.92,1.75-11.22,5.23-2.31,3.49-3.46,9.68-3.46,18.57v42.71H0V32.91Z"/>
      <path class="cls-1" d="M145.53,0v21.95h28.7V0h-28.7ZM166.12,41.03c2.32-3.12,5.03-5.84,8.11-8.05v-.05h-28.7v87.6h28.7v-.86c-3.12-2.42-5.84-5.34-8.11-8.56-3.52-4.98-6.09-10.72-7.75-17.07-1.66-6.19-2.47-12.69-2.47-19.28,0-6.19.86-12.18,2.47-17.92,1.71-5.84,4.28-11.18,7.75-15.81Z"/>
      <g>
        <path class="cls-1" d="M249.62,68.17l-57.39,21.92c2.67,5.78,6.29,9.73,10.86,11.85s9.55,2.15,14.98.08c7.67-2.93,11.48-8.31,11.42-16.14l22.07-6.67c.54,9.4-1.47,17.47-6.05,24.2-4.58,6.73-11.42,11.83-20.53,15.31-12.79,4.88-24.39,4.74-34.8-.42-10.41-5.17-18-13.99-22.77-26.47-4.57-11.97-4.81-23.19-.72-33.66,4.09-10.47,12.07-17.97,23.93-22.5,11.97-4.57,23.26-4.31,33.88.78,10.66,5.19,18.56,14.54,23.72,28.04l1.41,3.68ZM197.42,51.19c-4.91,1.88-8.36,4.95-10.36,9.23-1.92,4.48-2.12,9.48-.6,15l35.14-13.42c-2.72-5.29-6.21-8.88-10.45-10.78-4.24-1.9-8.82-1.91-13.73-.03Z"/>
        <path class="cls-1" d="M267.83,121.38c-3.17,1.21-6.15,1.24-8.94.07-2.79-1.16-4.75-3.23-5.88-6.19-1.13-2.97-1.05-5.81.26-8.54,1.3-2.72,3.54-4.69,6.71-5.9,3.17-1.21,6.1-1.22,8.79-.01,2.69,1.2,4.6,3.29,5.73,6.25,1.13,2.97,1.1,5.79-.1,8.48-1.2,2.69-3.39,4.63-6.56,5.85Z"/>
      </g>
    </g>
  </g>
</svg>